<svg width="493" height="300" viewBox="0 0 493 300" fill="none" xmlns="http://www.w3.org/2000/svg">
<g opacity="0.5">
<path opacity="0.75" d="M140.231 157.627V148.99C125.437 148.99 100.623 155.822 100.623 201.562V251.82C100.623 297.905 125.437 304.786 140.231 304.786V296.139V157.627Z" fill="#231F20"/>
<path opacity="0.75" d="M295.115 97.9086H299.439V69.3104H295.115C275.372 69.3104 259.244 75.9044 247.162 88.9225C235.314 101.834 229.316 119.767 229.316 142.227V202.393C229.316 224.902 235.323 242.801 247.162 255.567C259.016 268.498 275.154 275.053 295.115 275.053H299.439V246.712H295.115C273.902 246.712 263.14 231.802 263.14 202.393V141.859C263.14 121.805 268.691 97.9086 295.115 97.9086Z" fill="#231F20"/>
<path d="M326.177 19.5928C314.115 6.5844 297.981 0.000137329 278.238 0.000137329H273.92V28.5983H278.238C304.668 28.5983 310.213 52.4948 310.213 72.5436V122.797C310.213 152.2 299.452 167.111 278.238 167.111H273.92V195.452H278.238C298.2 195.452 314.338 188.897 326.182 175.99C338.035 163.21 344.042 145.305 344.042 122.797V72.9172C344.042 50.4521 338.04 32.5236 326.177 19.5928Z" fill="#231F20"/>
<path opacity="0.5" d="M0 162.115L59.4283 291.229L76.8182 254.712L37.9239 162.115H0Z" fill="#231F20"/>
<path d="M405.249 162.107L366.384 254.617L382.9 293.322L443.158 162.107H405.249Z" fill="#231F20"/>
<path d="M216.606 300.483C204.549 287.489 188.425 280.895 168.668 280.895C149.104 280.895 133.252 287.504 121.573 300.517C109.914 313.385 103.999 331.308 103.999 353.808V358.194L137.702 357.684V353.434C137.702 333.395 143.078 309.498 168.668 309.498C195.097 309.498 200.638 333.395 200.638 353.434V357.699L234.471 358.194V353.808C234.471 331.342 228.469 313.414 216.606 300.483Z" fill="#231F20"/>
<path opacity="0.5" d="M458.302 162.161V166.411C458.302 186.465 452.926 210.361 427.326 210.361C400.907 210.361 395.361 186.465 395.361 166.411V162.156L361.522 161.656V166.042C361.522 188.503 367.534 206.441 379.398 219.362C391.455 232.361 407.578 238.95 427.326 238.95C446.9 238.95 462.747 232.341 474.421 219.328C486.09 206.47 492.005 188.541 492.005 166.042V161.656L458.302 162.161Z" fill="#231F20"/>
<path opacity="0.75" d="M395.354 64.7627V10.2447L361.506 9.74005L361.642 65.1411L370.283 65.1217V65.0732L390.992 64.7627H395.354Z" fill="#231F20"/>
<path d="M492.38 144.9L488.081 144.653H492.375V97.9322L458.668 98.3641L458.678 148.612L488.004 148.986L492.594 148.821L492.38 144.9Z" fill="#231F20"/>
<path d="M203.949 145.18C184.91 143.171 174.424 127.916 174.424 102.239V60.8118H140.596V102.239C140.596 124.617 146.899 142.264 159.315 154.685C170.543 165.918 185.322 172.109 203.26 173.084L207.816 173.341V145.587L203.949 145.18Z" fill="#231F20"/>
<path d="M328.904 162.105L269.291 357.925H304.051L348.608 203.92L348.773 162.105H328.904Z" fill="#231F20"/>
<path d="M222.503 257.352H169.737L161.348 286.067H230.718L222.503 257.352Z" fill="#231F20"/>
<path opacity="0.5" d="M299.43 197.094C297.921 160.01 275.698 139.578 236.867 139.578C217.439 139.578 201.578 145.856 189.724 158.244C177.919 170.592 171.937 188.04 171.937 210.122V231.205H205.77V209.87C205.77 182.655 216.944 167.667 237.241 167.667C256.46 167.667 265.785 177.366 266.591 198.191L266.751 202.344H294.854L298.217 201.592L299.454 197.895L299.43 197.094Z" fill="#231F20"/>
<path opacity="0.75" d="M404.084 286.067V313.04H435.137V348.926C430.421 357.422 421.973 361.386 408.659 361.386C407.131 361.386 405.651 361.289 404.215 361.134L399.431 360.629V384.729L400.134 388.863L404.225 389.082C405.69 389.159 407.141 389.237 408.659 389.237C424.06 389.237 436.918 386.073 446.865 379.848C457.005 373.487 464.099 366.534 468.544 358.596L469.092 357.616V286.067H404.084Z" fill="#231F20"/>
</g>
</svg>
