<svg width="164" height="62" viewBox="0 0 164 62" fill="none" xmlns="http://www.w3.org/2000/svg">
<g clip-path="url(#clip0_5718_9933)">
<path d="M100.217 24.7869H100.311L104.226 14.9119H109.032L102.401 29.5309V37.6276H98.0165V29.2501L91.5105 14.9119H96.3165L100.217 24.7869Z" fill="white"/>
<path d="M122.196 23.0704C122.196 19.7635 120.823 18.0634 118.281 18.0634C115.722 18.0634 114.427 19.7479 114.427 23.0704V29.4523C114.427 32.8228 115.737 34.5073 118.296 34.5073C120.855 34.5073 122.196 32.8228 122.196 29.4523V23.0704ZM126.581 29.4523C126.581 32.1202 125.831 34.2117 124.318 35.7086C122.805 37.2069 120.808 37.9553 118.296 37.9553C115.784 37.9553 113.787 37.2069 112.289 35.7086C110.791 34.2117 110.042 32.1202 110.042 29.4523V23.1184C110.042 20.4506 110.791 18.359 112.289 16.8459C113.772 15.332 115.769 14.5836 118.281 14.5836C120.792 14.5836 122.805 15.332 124.318 16.8459C125.831 18.359 126.581 20.4506 126.581 23.1184V29.4523Z" fill="white"/>
<path d="M144.861 34.6324C144.221 35.5374 143.286 36.3169 142.069 36.9722C140.836 37.6275 139.26 37.9556 137.325 37.9556C134.876 37.9556 132.911 37.2374 131.428 35.8027C129.945 34.3819 129.196 32.3539 129.196 29.7185V22.8209C129.196 20.2003 129.915 18.1723 131.365 16.7375C132.801 15.3013 134.705 14.5831 137.076 14.5831C142.021 14.5831 144.579 17.0183 144.503 21.3396L144.471 21.4327H140.338C140.338 19.0618 139.307 18.0319 137.2 18.0319C134.938 18.0319 133.595 19.6078 133.595 22.7899V29.7185C133.595 32.9634 134.938 34.523 137.325 34.523C139.025 34.523 139.948 34.0864 140.462 33.4155V28.8282H136.998V25.7858H144.861V34.6324Z" fill="white"/>
<path d="M155.216 22.0414H155.311L157.199 29.2493H153.33L155.216 22.0414ZM153.001 14.9111L146.559 37.6282H151.144L152.424 32.7143H158.104L159.397 37.6282H164L157.558 14.9111H153.001Z" fill="white"/>
<path opacity="0.75" d="M21.3537 24.0014V22.6863C19.1011 22.6863 15.3228 23.7266 15.3228 30.6914V38.344C15.3228 45.3613 19.1011 46.4089 21.3537 46.4089V45.0924V24.0014Z" fill="white"/>
<path opacity="0.75" d="M44.9366 14.9082H45.5948V10.5536H44.9366C41.9303 10.5536 39.4745 11.5576 37.6348 13.5399C35.8307 15.5059 34.9175 18.2365 34.9175 21.6565V30.8178C34.9175 34.2452 35.8321 36.9707 37.6348 38.9145C39.4398 40.8835 41.8971 41.8816 44.9366 41.8816H45.5948V37.5662H44.9366C41.7065 37.5662 40.0678 35.2958 40.0678 30.8178V21.6004C40.0678 18.5468 40.913 14.9082 44.9366 14.9082Z" fill="white"/>
<path d="M49.6672 2.98335C47.8306 1.00259 45.374 1.71661e-05 42.3678 1.71661e-05H41.7102V4.3546H42.3678C46.3921 4.3546 47.2365 7.99326 47.2365 11.046V18.698C47.2365 23.1752 45.5979 25.4456 42.3678 25.4456H41.7102V29.761H42.3678C45.4072 29.761 47.8645 28.7628 49.668 26.7976C51.4729 24.8516 52.3876 22.1253 52.3876 18.698V11.1029C52.3876 7.68222 51.4737 4.9523 49.6672 2.98335Z" fill="white"/>
<path d="M54.9781 46.5717L52.9257 50.8783L52.8784 61.781H57.7007V51.3371L55.7103 46.5717H54.9781Z" fill="white"/>
<path opacity="0.5" d="M0 24.6847L9.04902 44.3446L11.6969 38.7843L5.77458 24.6847H0Z" fill="white"/>
<path d="M61.708 24.6838L55.79 38.77L58.305 44.6636L67.4803 24.6838H61.708Z" fill="white"/>
<path d="M32.9816 45.7533C31.1457 43.7747 28.6906 42.7707 25.6821 42.7707C22.7032 42.7707 20.2895 43.777 18.5112 45.7585C16.7358 47.7178 15.8352 50.447 15.8352 53.8729V54.5408L20.967 54.4632V53.816C20.967 50.7647 21.7856 47.126 25.6821 47.126C29.7065 47.126 30.5502 50.7647 30.5502 53.816V54.4654L35.702 54.5408V53.8729C35.702 50.4522 34.788 47.7222 32.9816 45.7533Z" fill="white"/>
<path opacity="0.5" d="M69.7848 24.6913V25.3385C69.7848 28.392 68.9661 32.0307 65.0682 32.0307C61.0453 32.0307 60.2008 28.392 60.2008 25.3385V24.6906L55.0483 24.6145V25.2823C55.0483 28.7023 55.9637 31.4337 57.7701 33.4012C59.6061 35.3805 62.0612 36.3838 65.0682 36.3838C68.0485 36.3838 70.4615 35.3775 72.2391 33.396C74.016 31.4382 74.9166 28.7082 74.9166 25.2823V24.6145L69.7848 24.6913Z" fill="white"/>
<path opacity="0.75" d="M60.2006 9.86132V1.55999L55.0466 1.48315L55.0673 9.91895L56.3831 9.91599V9.9086L59.5364 9.86132H60.2006Z" fill="white"/>
<path d="M74.9744 22.0637L74.3198 22.026H74.9736V14.912L69.8411 14.9777L69.8425 22.6289L74.3079 22.6858L75.0069 22.6607L74.9744 22.0637Z" fill="white"/>
<path d="M31.0559 22.1061C28.1568 21.8002 26.5602 19.4774 26.5602 15.5676V9.25955H21.4092V15.5676C21.4092 18.975 22.3689 21.6621 24.2595 23.5534C25.9692 25.2638 28.2196 26.2065 30.951 26.355L31.6447 26.3942V22.1681L31.0559 22.1061Z" fill="white"/>
<path d="M50.0822 24.6837L41.0051 54.5009H46.298L53.0825 31.0508L53.1077 24.6837H50.0822Z" fill="white"/>
<path d="M33.8799 39.1863H25.8453L24.5679 43.5586H35.1307L33.8799 39.1863Z" fill="white"/>
<path opacity="0.5" d="M45.594 30.0108C45.3643 24.3641 41.9805 21.2529 36.0677 21.2529C33.1095 21.2529 30.6943 22.2089 28.8894 24.0951C27.0919 25.9754 26.1809 28.6322 26.1809 31.9946V35.2047H31.3327V31.9561C31.3327 27.8121 33.0342 25.5299 36.1246 25.5299C39.0511 25.5299 40.4711 27.0068 40.5937 30.1778L40.6181 30.8102H44.8973L45.4093 30.6957L45.5977 30.1327L45.594 30.0108Z" fill="white"/>
<path opacity="0.75" d="M61.5293 43.5585V47.6656H66.2577V53.1299C65.5396 54.4235 64.2533 55.0271 62.226 55.0271C61.9933 55.0271 61.768 55.0124 61.5493 54.9887L60.8208 54.9119V58.5816L60.9279 59.2111L61.5508 59.2443C61.7739 59.2561 61.9948 59.2679 62.226 59.2679C64.571 59.2679 66.5289 58.7862 68.0435 57.8383C69.5876 56.8697 70.6677 55.811 71.3445 54.6023L71.428 54.4531V43.5585H61.5293Z" fill="white"/>
<circle cx="118.368" cy="26.5486" r="1.38528" fill="white"/>
<path d="M98.7339 44.8607L98.5388 45.7472H98.326C98.0423 45.7472 97.7764 45.765 97.5281 45.8004C97.2917 45.8241 97.0967 45.8773 96.943 45.96C96.7893 46.0309 96.6888 46.1491 96.6415 46.3146L94.7443 56.3862H97.3685C97.7468 56.3862 98.0719 56.3803 98.3438 56.3684C98.6275 56.3448 98.858 56.3034 99.0353 56.2443C99.2244 56.1852 99.3722 56.1084 99.4786 56.0138C99.5968 55.9074 99.6796 55.7774 99.7268 55.6237L100.347 53.4427H101.447L100.684 57.4501H91.1802L91.3753 56.5635H91.5703C91.9841 56.5635 92.3387 56.528 92.6342 56.4571C92.9416 56.3862 93.1189 56.2325 93.1662 55.9961L94.9925 46.3856C95.0516 46.1255 94.9452 45.9541 94.6733 45.8714C94.4015 45.7886 94.0468 45.7472 93.6095 45.7472H93.4144L93.5917 44.8607H98.7339ZM111.425 50.783L110.733 51.6873C110.674 51.1554 110.55 50.7003 110.361 50.322C110.172 49.9437 109.918 49.6541 109.598 49.4531C109.291 49.2404 108.919 49.134 108.481 49.134C108.103 49.134 107.748 49.2285 107.417 49.4177C107.086 49.595 106.779 49.8491 106.495 50.1801C106.223 50.5111 105.987 50.8953 105.786 51.3327C105.597 51.7582 105.449 52.2252 105.343 52.7335C105.236 53.23 105.183 53.7324 105.183 54.2407C105.183 54.7608 105.236 55.1982 105.343 55.5528C105.449 55.9074 105.615 56.1734 105.839 56.3507C106.064 56.528 106.353 56.6167 106.708 56.6167C107.122 56.6167 107.506 56.4985 107.861 56.2621C108.215 56.0256 108.576 55.671 108.942 55.1982C109.309 54.7135 109.693 54.1224 110.095 53.425L110.503 53.9215C110.089 54.7017 109.675 55.3696 109.261 55.9252C108.86 56.4807 108.434 56.9122 107.985 57.2196C107.536 57.5151 107.015 57.6629 106.424 57.6629C105.81 57.6629 105.284 57.5269 104.846 57.255C104.409 56.9831 104.078 56.5871 103.853 56.067C103.629 55.5469 103.516 54.9026 103.516 54.1343C103.516 53.5196 103.593 52.9167 103.747 52.3256C103.912 51.7346 104.143 51.1849 104.438 50.6766C104.734 50.1565 105.089 49.7014 105.502 49.3113C105.916 48.9212 106.377 48.6197 106.885 48.407C107.394 48.1824 107.932 48.0701 108.499 48.0701C109.066 48.0701 109.545 48.1883 109.935 48.4247C110.325 48.6611 110.639 48.9862 110.875 49.3999C111.111 49.8019 111.295 50.2629 111.425 50.783ZM112.435 48.2119L111.283 54.3116C111.224 54.6426 111.171 54.9204 111.123 55.145C111.076 55.3696 111.041 55.5587 111.017 55.7124C110.993 55.8542 110.981 55.9665 110.981 56.0493C110.981 56.1911 111.023 56.2975 111.106 56.3684C111.188 56.4394 111.318 56.4748 111.496 56.4748C111.779 56.4748 112.057 56.4335 112.329 56.3507C112.601 56.268 112.802 56.2089 112.932 56.1734L112.755 57.1309C112.613 57.2018 112.453 57.2728 112.276 57.3437C112.098 57.4028 111.909 57.4501 111.708 57.4855C111.507 57.5328 111.289 57.5565 111.052 57.5565C110.78 57.5565 110.532 57.5033 110.308 57.3969C110.095 57.2787 109.929 57.1191 109.811 56.9181C109.693 56.7172 109.634 56.4689 109.634 56.1734C109.634 56.0079 109.646 55.8129 109.669 55.5883C109.693 55.3518 109.734 55.0504 109.793 54.6839L109.581 55.0563L110.503 50.0205L110.609 49.9319L111.372 48.2119H112.435ZM118.258 56.6167C118.683 56.6167 119.079 56.5221 119.446 56.333C119.812 56.1438 120.137 55.8838 120.421 55.5528C120.716 55.2218 120.965 54.8435 121.166 54.418C121.378 53.9924 121.538 53.5314 121.644 53.0349C121.751 52.5384 121.804 52.036 121.804 51.5277C121.804 50.9958 121.745 50.5525 121.627 50.1979C121.52 49.8432 121.349 49.5773 121.112 49.3999C120.876 49.2108 120.557 49.1162 120.155 49.1162C119.729 49.1162 119.321 49.2344 118.931 49.4709C118.553 49.7073 118.163 50.056 117.761 50.517C117.371 50.9662 116.957 51.5336 116.52 52.2193L116.112 51.705C116.549 50.9485 116.987 50.3042 117.424 49.7723C117.862 49.2285 118.323 48.8089 118.807 48.5134C119.304 48.2178 119.848 48.0701 120.439 48.0701C121.089 48.0701 121.638 48.2119 122.088 48.4956C122.537 48.7675 122.88 49.1694 123.116 49.7014C123.352 50.2215 123.471 50.8657 123.471 51.6341C123.471 52.237 123.388 52.834 123.222 53.425C123.069 54.0161 122.838 54.5716 122.531 55.0918C122.224 55.6001 121.851 56.0493 121.414 56.4394C120.988 56.8176 120.504 57.1191 119.96 57.3437C119.428 57.5565 118.849 57.6629 118.222 57.6629C117.619 57.6629 117.087 57.5919 116.626 57.4501C116.165 57.3082 115.757 57.125 115.403 56.9004C115.048 56.6758 114.747 56.4453 114.498 56.2089L116.396 45.96C116.431 45.7945 116.396 45.6645 116.289 45.5699C116.195 45.4753 116.047 45.3985 115.846 45.3394C115.657 45.2685 115.409 45.2094 115.101 45.1621L114.906 45.1266L115.066 44.2578H118.275L116.041 56.333C115.935 56.2266 115.846 56.1202 115.775 56.0138C115.704 55.9074 115.651 55.7951 115.616 55.6769C115.592 55.5469 115.586 55.4169 115.598 55.2868C115.61 55.1568 115.639 55.0268 115.687 54.8967C115.793 55.2277 115.958 55.5232 116.183 55.7833C116.408 56.0434 116.691 56.2502 117.034 56.4039C117.389 56.5458 117.797 56.6167 118.258 56.6167Z" fill="white"/>
</g>
<defs>
<clipPath id="clip0_5718_9933">
<rect width="164" height="61.7809" fill="white"/>
</clipPath>
</defs>
</svg>
